<?xml version="1.0" encoding="utf-8"?>
<!-- Generated by IcoMoon.io -->
<svg version="1.1" xmlns="http://www.w3.org/2000/svg" xmlns:xlink="http://www.w3.org/1999/xlink" fill="grey" width="480" height="15" viewBox="0 0 480 15">
<svg id="icon-document" width="15" height="15" viewBox="0 0 15 15" x="0" y="0">
<path d="M0 0v15h13.125v-7.5h-7.5v-7.5h-5.625zM7.5 0v5.625h5.625l-5.625-5.625zM1.875 3.75h1.875v1.875h-1.875v-1.875zM1.875 7.5h1.875v1.875h-1.875v-1.875zM1.875 11.25h7.5v1.875h-7.5v-1.875z"></path>
</svg>
<svg id="icon-account-logout" width="15" height="15" viewBox="0 0 15 15" x="31" y="0">
<path d="M5.625 0v1.875h7.5v9.375h-7.5v1.875h9.375v-13.125h-9.375zM3.75 3.75l-3.75 2.813 3.75 2.813v-1.875h7.5v-1.875h-7.5v-1.875z"></path>
</svg>
<svg id="icon-calendar" width="15" height="15" viewBox="0 0 15 15" x="62" y="0">
<path d="M0 0v3.75h13.125v-3.75h-13.125zM0 5.625v9.206c0 0.094 0.075 0.169 0.169 0.169h12.769c0.094 0 0.169-0.075 0.169-0.169v-9.206h-13.125zM1.875 7.5h1.875v1.875h-1.875v-1.875zM5.625 7.5h1.875v1.875h-1.875v-1.875zM9.375 7.5h1.875v1.875h-1.875v-1.875zM1.875 11.25h1.875v1.875h-1.875v-1.875zM5.625 11.25h1.875v1.875h-1.875v-1.875z"></path>
</svg>
<svg id="icon-cog" width="15" height="15" viewBox="0 0 15 15" x="93" y="0">
<path d="M6.563 0l-0.938 2.231c-0.188 0.056-0.356 0.15-0.525 0.244l-2.231-0.938-1.35 1.35 0.938 2.231c-0.094 0.188-0.169 0.338-0.244 0.525l-2.231 0.938v1.875l2.231 0.938c0.075 0.188 0.15 0.338 0.244 0.525l-0.938 2.231 1.35 1.35 2.231-0.938c0.169 0.075 0.338 0.169 0.525 0.244l0.938 2.231h1.875l0.938-2.231c0.169-0.075 0.356-0.15 0.525-0.244l2.231 0.938 1.35-1.35-0.938-2.231c0.075-0.169 0.169-0.356 0.244-0.525l2.231-0.938v-1.875l-2.231-0.938c-0.056-0.169-0.15-0.356-0.244-0.525l0.938-2.231-1.35-1.35-2.231 0.938c-0.169-0.075-0.356-0.169-0.525-0.244l-0.938-2.231h-1.875zM7.5 4.688c1.556 0 2.813 1.256 2.813 2.813s-1.256 2.813-2.813 2.813-2.813-1.256-2.813-2.813 1.256-2.813 2.813-2.813z"></path>
</svg>
<svg id="icon-home" width="15" height="15" viewBox="0 0 15 15" x="124" y="0">
<path d="M7.5 0l-7.5 5.625h1.875v7.5h3.75v-3.75h3.75v3.75h3.75v-7.556l1.875 0.056-7.5-5.625z"></path>
</svg>
<svg id="icon-people" width="15" height="15" viewBox="0 0 15 15" x="155" y="0">
<path d="M10.313 0c-0.956 0-1.781 0.656-2.287 1.65 0.844 1.012 1.35 2.4 1.35 3.994 0 0.544-0.056 1.031-0.169 1.519 0.356 0.206 0.712 0.356 1.106 0.356 1.556 0 2.813-1.688 2.813-3.75s-1.256-3.75-2.813-3.75zM4.688 1.875c-1.556 0-2.813 1.688-2.813 3.75s1.256 3.75 2.813 3.75 2.813-1.688 2.813-3.75-1.256-3.75-2.813-3.75zM13.594 7.8c-0.806 0.956-1.912 1.537-3.169 1.575 0.506 0.713 0.825 1.575 0.825 2.512v1.238h3.75v-3.113c0-0.975-0.581-1.819-1.406-2.231zM1.406 9.675c-0.825 0.412-1.406 1.256-1.406 2.231v3.112h9.375v-3.112c0-0.975-0.581-1.819-1.406-2.231-0.844 0.994-1.987 1.575-3.281 1.575s-2.438-0.6-3.281-1.575z"></path>
</svg>
<svg id="icon-spreadsheet" width="15" height="15" viewBox="0 0 15 15" x="186" y="0">
<path d="M1.406 0c-0.769 0-1.406 0.638-1.406 1.406v10.313c0 0.769 0.638 1.406 1.406 1.406h12.188c0.769 0 1.406-0.637 1.406-1.406v-10.313c0-0.769-0.637-1.406-1.406-1.406h-12.188zM1.875 1.875h1.875v1.875h-1.875v-1.875zM5.625 1.875h7.5v1.875h-7.5v-1.875zM1.875 5.625h1.875v1.875h-1.875v-1.875zM5.625 5.625h7.5v1.875h-7.5v-1.875zM1.875 9.375h1.875v1.875h-1.875v-1.875zM5.625 9.375h7.5v1.875h-7.5v-1.875z"></path>
</svg>
</svg>
