<?xml version="1.0" encoding="utf-8"?>
<!-- Generated by IcoMoon.io -->
<svg version="1.1" xmlns="http://www.w3.org/2000/svg" xmlns:xlink="http://www.w3.org/1999/xlink" fill="grey" width="480" height="15" viewBox="0 0 480 15">
<svg id="icon-home" width="15" height="15" viewBox="0 0 15 15" x="0" y="0">
<path d="M15 8.649l-7.5-5.822-7.5 5.822v-2.374l7.5-5.822 7.5 5.822zM13.125 8.438v5.625h-3.75v-3.75h-3.75v3.75h-3.75v-5.625l5.625-4.219z"></path>
</svg>
<svg id="icon-users" width="17" height="15" viewBox="0 0 17 15" x="31" y="0">
<path d="M11.25 11.288v-0.773c1.033-0.582 1.875-2.033 1.875-3.484 0-2.33 0-4.219-2.813-4.219s-2.813 1.889-2.813 4.219c0 1.451 0.842 2.902 1.875 3.484v0.773c-3.18 0.26-5.625 1.823-5.625 3.712h13.125c0-1.889-2.445-3.452-5.625-3.712z"></path>
<path d="M4.793 11.65c0.81-0.53 1.818-0.932 2.927-1.178-0.221-0.261-0.421-0.551-0.593-0.865-0.446-0.809-0.681-1.7-0.681-2.577 0-1.26 0-2.451 0.448-3.424 0.435-0.945 1.218-1.531 2.332-1.75-0.248-1.12-0.907-1.857-2.663-1.857-2.813 0-2.813 1.889-2.813 4.219 0 1.451 0.842 2.902 1.875 3.484v0.773c-3.18 0.26-5.625 1.823-5.625 3.712h4.087c0.213-0.189 0.448-0.369 0.706-0.537z"></path>
</svg>
<svg id="icon-cog" width="15" height="15" viewBox="0 0 15 15" x="62" y="0">
<path d="M13.679 8.939c-0.787-1.363-0.314-3.11 1.057-3.904l-1.474-2.553c-0.421 0.247-0.911 0.388-1.433 0.388-1.575 0-2.852-1.285-2.852-2.871h-2.948c0.004 0.489-0.118 0.986-0.38 1.439-0.787 1.363-2.536 1.827-3.909 1.036l-1.474 2.553c0.424 0.241 0.792 0.595 1.053 1.047 0.786 1.361 0.315 3.104-1.050 3.9l1.474 2.553c0.42-0.245 0.907-0.385 1.427-0.385 1.57 0 2.844 1.277 2.852 2.856h2.948c-0.001-0.484 0.121-0.975 0.38-1.424 0.786-1.361 2.531-1.825 3.903-1.040l1.474-2.553c-0.422-0.241-0.787-0.593-1.046-1.043zM7.5 10.537c-1.677 0-3.037-1.36-3.037-3.037s1.36-3.037 3.037-3.037c1.677 0 3.037 1.36 3.037 3.037s-1.36 3.037-3.037 3.037z"></path>
</svg>
<svg id="icon-lab" width="15" height="15" viewBox="0 0 15 15" x="93" y="0">
<path d="M14.008 11.784l-4.633-7.72v-3.127h0.469c0.258 0 0.469-0.211 0.469-0.469s-0.211-0.469-0.469-0.469h-4.688c-0.258 0-0.469 0.211-0.469 0.469s0.211 0.469 0.469 0.469h0.469v3.127l-4.633 7.72c-1.061 1.769-0.242 3.216 1.821 3.216h9.375c2.063 0 2.882-1.447 1.821-3.216zM3.531 9.375l3.032-5.053v-3.385h1.875v3.385l3.032 5.053h-7.938z"></path>
</svg>
<svg id="icon-exit" width="15" height="15" viewBox="0 0 15 15" x="124" y="0">
<path d="M11.25 9.375v-1.875h-4.688v-1.875h4.688v-1.875l2.813 2.813zM10.313 8.438v3.75h-4.688v2.813l-5.625-2.813v-12.188h10.313v4.688h-0.938v-3.75h-7.5l3.75 1.875v8.438h3.75v-2.813z"></path>
</svg>
<svg id="icon-table2" width="15" height="15" viewBox="0 0 15 15" x="155" y="0">
<path d="M0 0.938v13.125h15v-13.125h-15zM5.625 9.375v-2.813h3.75v2.813h-3.75zM9.375 10.313v2.813h-3.75v-2.813h3.75zM9.375 2.813v2.813h-3.75v-2.813h3.75zM4.688 2.813v2.813h-3.75v-2.813h3.75zM0.938 6.563h3.75v2.813h-3.75v-2.813zM10.313 6.563h3.75v2.813h-3.75v-2.813zM10.313 5.625v-2.813h3.75v2.813h-3.75zM0.938 10.313h3.75v2.813h-3.75v-2.813zM10.313 13.125v-2.813h3.75v2.813h-3.75z"></path>
</svg>
</svg>
